<svg xmlns="http://www.w3.org/2000/svg" width="16" height="15.024" viewBox="0 0 16 15.024"><path d="M7.981,15.024,6.82,13.948Q5.246,12.488,4.5,11.777T2.7,9.914A15.418,15.418,0,0,1,1.18,8.031,8.907,8.907,0,0,1,.356,6.359,5.257,5.257,0,0,1,0,4.5,4.4,4.4,0,0,1,1.274,1.306,4.176,4.176,0,0,1,4.384,0a4.465,4.465,0,0,1,3.6,1.729A4.465,4.465,0,0,1,11.579,0a4.222,4.222,0,0,1,3.148,1.306A4.4,4.4,0,0,1,16,4.5a5.015,5.015,0,0,1-.375,1.864A10.79,10.79,0,0,1,14.8,8.031a13.266,13.266,0,0,1-1.518,1.883q-1.068,1.153-1.8,1.864T9.143,13.986Z" fill="#8d8d8d"/></svg>