<svg xmlns="http://www.w3.org/2000/svg" width="16" height="16" viewBox="0 0 16 16"><path d="M18.025,11.018l.884-1.528A.8.8,0,0,0,18.617,8.4l-1.53-.884V5.749a.8.8,0,0,0-.8-.8H14.525l-.884-1.529a.807.807,0,0,0-.486-.373.8.8,0,0,0-.608.08l-1.53.885-1.53-.885a.8.8,0,0,0-1.094.293L7.509,4.948H5.748a.8.8,0,0,0-.8.8V7.51l-1.53.884a.8.8,0,0,0-.292,1.095l.884,1.529-.884,1.528a.8.8,0,0,0,.292,1.095l1.53.884v1.761a.8.8,0,0,0,.8.8H7.509l.884,1.53a.8.8,0,0,0,1.1.292l1.528-.884,1.53.884a.8.8,0,0,0,1.094-.292l.884-1.53h1.761a.8.8,0,0,0,.8-.8V14.525l1.53-.884a.8.8,0,0,0,.292-1.095ZM9.014,7.005a1.2,1.2,0,1,1-1.2,1.2,1.2,1.2,0,0,1,1.2-1.2Zm.24,7.689-1.282-.961,4.806-6.408s2.163-.881,1.282.961S9.254,14.695,9.254,14.695Zm3.765.32a1.2,1.2,0,1,1,1.2-1.2,1.2,1.2,0,0,1-1.2,1.2Z" transform="translate(-3.017 -3.018)" fill="#8d8d8d"/></svg>