<svg xmlns="http://www.w3.org/2000/svg" width="24" height="24" viewBox="0 0 24 24"><path d="M6,.75a.75.75,0,0,0-1.5,0V1.5H3a3,3,0,0,0-3,3V21a3,3,0,0,0,3,3H21a3,3,0,0,0,3-3V4.5a3,3,0,0,0-3-3H19.5V.75a.75.75,0,0,0-1.5,0V1.5H6ZM3,5.25a.75.75,0,0,1,.75-.75h16.5a.75.75,0,0,1,.75.75v1.5a.75.75,0,0,1-.75.75H3.75A.75.75,0,0,1,3,6.75Zm9.75,5.25a.75.75,0,0,0-.75.75v1.5a.75.75,0,0,0,.75.75h1.5a.75.75,0,0,0,.75-.75v-1.5a.75.75,0,0,0-.75-.75Zm4.5,0a.75.75,0,0,0-.75.75v1.5a.75.75,0,0,0,.75.75h1.5a.75.75,0,0,0,.75-.75v-1.5a.75.75,0,0,0-.75-.75ZM4.5,15.75A.75.75,0,0,1,5.25,15h1.5a.75.75,0,0,1,.75.75v1.5a.75.75,0,0,1-.75.75H5.25a.75.75,0,0,1-.75-.75ZM9.75,15a.75.75,0,0,0-.75.75v1.5a.75.75,0,0,0,.75.75h1.5a.75.75,0,0,0,.75-.75v-1.5a.75.75,0,0,0-.75-.75Z" fill="#0065ff" fill-rule="evenodd"/></svg>