<svg id="card" xmlns="http://www.w3.org/2000/svg" width="31.501" height="24.751" viewBox="0 0 31.501 24.751">
  <path id="Path_16820" data-name="Path 16820" d="M2.25,26.438a3.938,3.938,0,0,0,3.938,3.938H29.813a3.938,3.938,0,0,0,3.938-3.938V15.609H2.25Zm4.641-5.344A2.109,2.109,0,0,1,9,18.985h3.375a2.109,2.109,0,0,1,2.109,2.109V22.5a2.109,2.109,0,0,1-2.109,2.109H9A2.109,2.109,0,0,1,6.891,22.5Z" transform="translate(-2.25 -5.625)" fill="#0065ff"/>
  <path id="Path_16821" data-name="Path 16821" d="M29.813,5.625H6.188A3.938,3.938,0,0,0,2.25,9.563v1.828h31.5V9.563a3.938,3.938,0,0,0-3.938-3.938Z" transform="translate(-2.25 -5.625)" fill="#0065ff"/>
</svg>
