<svg xmlns="http://www.w3.org/2000/svg" width="16.838" height="23.013" viewBox="0 0 16.838 23.013">
  <path id="Icon_awesome-file-invoice" data-name="Icon awesome-file-invoice" d="M12.628,11.506H4.209v2.877h8.419Zm3.9-6.787L12.238.315A1.039,1.039,0,0,0,11.493,0h-.267V5.753h5.613V5.479A1.089,1.089,0,0,0,16.531,4.719ZM9.822,6.113V0H1.052A1.063,1.063,0,0,0,0,1.079V21.934a1.063,1.063,0,0,0,1.052,1.079H15.785a1.063,1.063,0,0,0,1.052-1.079V7.191H10.874A1.069,1.069,0,0,1,9.822,6.113ZM2.806,3.236a.355.355,0,0,1,.351-.36H6.665a.355.355,0,0,1,.351.36v.719a.355.355,0,0,1-.351.36H3.157a.355.355,0,0,1-.351-.36Zm0,2.877a.355.355,0,0,1,.351-.36H6.665a.355.355,0,0,1,.351.36v.719a.355.355,0,0,1-.351.36H3.157a.355.355,0,0,1-.351-.36Zm11.225,4.674V15.1a.71.71,0,0,1-.7.719H3.508a.71.71,0,0,1-.7-.719V10.787a.71.71,0,0,1,.7-.719H13.33A.71.71,0,0,1,14.031,10.787Z" fill="#0065ff"/>
</svg>
