<svg xmlns="http://www.w3.org/2000/svg" width="16" height="16" viewBox="0 0 16 16">
  <path id="map" d="M4.572,0a.275.275,0,0,1,.2.085.275.275,0,0,1,.085.2V13.428a.254.254,0,0,1-.152.25L.42,15.964A.267.267,0,0,1,.286,16a.275.275,0,0,1-.2-.085.275.275,0,0,1-.085-.2V2.572a.254.254,0,0,1,.152-.25L4.437.036A.267.267,0,0,1,4.571,0ZM15.714,0a.275.275,0,0,1,.2.085.275.275,0,0,1,.085.2V13.428a.254.254,0,0,1-.152.25l-4.286,2.286a.267.267,0,0,1-.134.036.29.29,0,0,1-.286-.286V2.572a.254.254,0,0,1,.152-.25L15.58.036A.267.267,0,0,1,15.714,0Zm-10,0a.276.276,0,0,1,.125.027l4.572,2.286a.282.282,0,0,1,.161.259V15.714a.289.289,0,0,1-.411.259L5.589,13.688a.282.282,0,0,1-.161-.259V.286a.275.275,0,0,1,.085-.2A.275.275,0,0,1,5.714,0Z" fill="#fff"/>
</svg>
