<svg id="microscope" xmlns="http://www.w3.org/2000/svg" width="25.242" height="32.277" viewBox="0 0 25.242 32.277">
  <path id="Path_16851" data-name="Path 16851" d="M0,0H14.585V6.922L.372,7.3Z" transform="translate(21.015 6.771) rotate(135)" fill="#317af0"/>
  <g id="Group_1542" data-name="Group 1542" transform="translate(0 0)">
    <path id="Path_1214" data-name="Path 1214" d="M172.665,480.116H152.82a1.24,1.24,0,0,0,0,2.48h19.844a1.24,1.24,0,1,0,0-2.48Z" transform="translate(-150.587 -450.32)" fill="#317af0"/>
    <path id="Path_1215" data-name="Path 1215" d="M63.386,29.795A10.781,10.781,0,0,0,74.065,18.916a10.9,10.9,0,0,0-5.624-9.581L69.958,7.79a1,1,0,0,0,0-1.4l-.686-.7,1.185-1.208a1,1,0,0,0,0-1.4L67.711.29a.957.957,0,0,0-1.373,0L65.153,1.5,64.466.8a.957.957,0,0,0-1.373,0L54.466,9.584a1,1,0,0,0,0,1.4l.686.7-2.253,2.3a1,1,0,0,0,0,1.4l2.746,2.8a.958.958,0,0,0,1.373,0l2.253-2.3.686.7a.958.958,0,0,0,1.373,0l5.663-5.769a8.99,8.99,0,0,1,2.57,14.4,8.631,8.631,0,0,1-6.179,2.607,8.748,8.748,0,0,1-8.233-5.934h2.41a.989.989,0,0,0,0-1.978H49.794a.989.989,0,0,0,0,1.978h3.319A10.71,10.71,0,0,0,63.386,29.795ZM60.644,14.48l-.686-.7a.957.957,0,0,0-1.373,0l-2.253,2.3-1.373-1.4,2.253-2.3a1,1,0,0,0,0-1.4l-.686-.7L63.779,2.9l.686.7a.958.958,0,0,0,1.373,0l1.185-1.208,1.373,1.4L67.211,4.994a1,1,0,0,0,0,1.4l.686.7Z" transform="translate(-48.823 0)" fill="#317af0"/>
  </g>
</svg>
