<svg id="ORTHOPEDIC" xmlns="http://www.w3.org/2000/svg" width="32" height="32" viewBox="0 0 32 32">
  <path id="Union_27" data-name="Union 27" d="M12.635,25.292c-2.146-.187-3.969-1.333-4.365-2.9-.5-1.979,1.427-3.875,4.229-4.146a6.523,6.523,0,0,1,2.219.167,5.1,5.1,0,0,0,3.344-.333,6.378,6.378,0,0,1,2.083-.542c2.8-.271,5.375,1.167,5.625,3.188.188,1.583-1.146,3.042-3.156,3.6l2.4,7.646L13.927,32Zm-9.2-4.937a.785.785,0,0,1,0-1.375L4.9,17.958a1.729,1.729,0,0,1,1.938,0,.782.782,0,0,1,0,1.354L5.354,20.354a1.518,1.518,0,0,1-.958.292A1.538,1.538,0,0,1,3.438,20.354Zm-2.083-4.1C.615,16.25,0,15.813,0,15.292c0-.562.6-.979,1.354-.979H3.438c.75,0,1.354.417,1.354.979,0,.521-.6.958-1.354.958ZM20.938,15a4.958,4.958,0,0,1-1.792-.937,4.733,4.733,0,0,0-3.094-.958,6.622,6.622,0,0,1-2.2-.292c-2.583-.792-3.74-2.958-2.479-4.792a5.74,5.74,0,0,1,5.292-1.938L20.479,0,32,.021,25.906,8.938c1.729.917,2.448,2.583,1.656,4.063a5.225,5.225,0,0,1-4.656,2.313A6.425,6.425,0,0,1,20.938,15ZM13.594,8.229c-.052.042-1.187.708-1.073,1.563a1.971,1.971,0,0,0,1.26,1.292.684.684,0,0,0,.406.083.6.6,0,0,0,.354-.125c.156-.146.094-.354-.156-.5a1.148,1.148,0,0,1-.781-.75,1.3,1.3,0,0,1,.74-1,.278.278,0,0,0,.01-.5.654.654,0,0,0-.437-.146A.822.822,0,0,0,13.594,8.229ZM4.9,12.6,3.438,11.563a.767.767,0,0,1,0-1.354,1.7,1.7,0,0,1,1.917,0l1.479,1.021a.8.8,0,0,1,0,1.375,1.6,1.6,0,0,1-.979.292A1.579,1.579,0,0,1,4.9,12.6Z" fill="#317af0"/>
</svg>
