<svg xmlns="http://www.w3.org/2000/svg" width="21" height="23" viewBox="0 0 21 23">
  <path id="Subtraction_7" data-name="Subtraction 7" d="M19.5,23H1.5a1.5,1.5,0,0,1-1.055-.415A1.343,1.343,0,0,1,0,21.563V1.438A1.354,1.354,0,0,1,.445.427,1.473,1.473,0,0,1,1.5,0h18a1.463,1.463,0,0,1,1.067.427A1.368,1.368,0,0,1,21,1.438V21.563a1.361,1.361,0,0,1-.433,1.022A1.479,1.479,0,0,1,19.5,23ZM9.75,18.688h1.5a.736.736,0,0,0,.527-.213.685.685,0,0,0,0-1.011.736.736,0,0,0-.527-.213H9.75a.736.736,0,0,0-.527.213.685.685,0,0,0,0,1.011A.736.736,0,0,0,9.75,18.688Zm-6,0h3a.737.737,0,0,0,.527-.213.685.685,0,0,0,0-1.011.736.736,0,0,0-.527-.213h-3a.736.736,0,0,0-.527.213.685.685,0,0,0,0,1.011A.736.736,0,0,0,3.75,18.688Zm0-4.313h7.5a.736.736,0,0,0,.527-.213.685.685,0,0,0,0-1.011.736.736,0,0,0-.527-.213H3.75a.736.736,0,0,0-.527.213.685.685,0,0,0,0,1.011A.736.736,0,0,0,3.75,14.375Zm0-4.312h3a.736.736,0,0,0,.527-.213.685.685,0,0,0,0-1.011.736.736,0,0,0-.527-.213h-3a.736.736,0,0,0-.527.213.685.685,0,0,0,0,1.011A.736.736,0,0,0,3.75,10.063Zm6-5.75h-6a.736.736,0,0,0-.527.213.685.685,0,0,0,0,1.011.736.736,0,0,0,.527.213h6a.736.736,0,0,0,.527-.213.685.685,0,0,0,0-1.011.736.736,0,0,0-.527-.213Zm7.5,0h-4.5a.736.736,0,0,0-.527.213.685.685,0,0,0,0,1.011.736.736,0,0,0,.527.213h4.5a.736.736,0,0,0,.527-.213.685.685,0,0,0,0-1.011.736.736,0,0,0-.527-.213Zm0,4.313H9.75a.736.736,0,0,0-.527.213.685.685,0,0,0,0,1.011.736.736,0,0,0,.527.213h7.5a.736.736,0,0,0,.527-.213.685.685,0,0,0,0-1.011A.736.736,0,0,0,17.25,8.625Zm0,4.312h-3a.736.736,0,0,0-.527.213.685.685,0,0,0,0,1.011.736.736,0,0,0,.527.213h3a.736.736,0,0,0,.527-.213.685.685,0,0,0,0-1.011A.736.736,0,0,0,17.25,12.937Zm0,4.313h-3a.736.736,0,0,0-.527.213.685.685,0,0,0,0,1.011.737.737,0,0,0,.527.213h3a.737.737,0,0,0,.527-.213.685.685,0,0,0,0-1.011A.736.736,0,0,0,17.25,17.25Z" fill="#0065ff"/>
</svg>
