<svg xmlns="http://www.w3.org/2000/svg" width="32" height="32" viewBox="0 0 32 32">
  <path id="Union_62" data-name="Union 62" d="M-2236.488-624.625v-4.741a3.774,3.774,0,0,0-.89-2.533,2.846,2.846,0,0,0-2.207-1.022h-4.129a2.846,2.846,0,0,0-2.207,1.022,3.777,3.777,0,0,0-.89,2.533v4.741h-2.064v-4.741a6.347,6.347,0,0,1,1.5-4.208,4.791,4.791,0,0,1,3.665-1.718h4.129a4.793,4.793,0,0,1,3.665,1.718,6.35,6.35,0,0,1,1.5,4.208v4.741Zm-10.323-18.963c0-3.273,2.311-5.926,5.161-5.926s5.161,2.653,5.161,5.926-2.311,5.926-5.161,5.926S-2246.811-640.316-2246.811-643.588Zm2.065,0a3.35,3.35,0,0,0,3.1,3.556,3.35,3.35,0,0,0,3.1-3.556,3.35,3.35,0,0,0-3.1-3.555A3.35,3.35,0,0,0-2244.746-643.588Zm12.387,4.741a1.117,1.117,0,0,1-1.032-1.185v-15.407a1.116,1.116,0,0,1,1.032-1.185h14.451a1.116,1.116,0,0,1,1.032,1.185v15.407a1.117,1.117,0,0,1-1.032,1.185Zm3.1-4.741h3.1v2.37h2.065v-2.37h3.1v-2.37h-3.1v-3.556h3.1v-2.37h-3.1v-2.37h-2.065v2.37h-3.1v2.37h3.1v3.556h-3.1Z" transform="translate(2248.875 656.625)" fill="#317af0"/>
</svg>
