<svg xmlns="http://www.w3.org/2000/svg" width="16" height="15.376" viewBox="0 0 16 15.376">
  <path id="Union_10" data-name="Union 10" d="M11.522,14.2A1.176,1.176,0,1,1,12.7,15.376,1.176,1.176,0,0,1,11.522,14.2Zm-7.143,0a1.176,1.176,0,1,1,1.176,1.176A1.176,1.176,0,0,1,4.379,14.2Zm-.7-2.482A1.39,1.39,0,0,1,3.72,9.946l.068-.068.857-.7L2.247,1.6.371,1.027a.525.525,0,0,1,.308-1L2.821.682a.522.522,0,0,1,.345.34L5.554,8.583h7.838l1.4-6.27H4.932L4.593,1.267H15.472a.538.538,0,0,1,.517.637L14.333,9.22a.523.523,0,0,1-.522.407H5.742L4.483,10.673a.35.35,0,0,0,.292.523h8.805a.522.522,0,0,1,0,1.045H4.859l-.071,0A1.437,1.437,0,0,1,3.678,11.718Z" transform="translate(0 0)" fill="#fff"/>
</svg>
