<svg xmlns="http://www.w3.org/2000/svg" width="24" height="14.4" viewBox="0 0 24 14.4">
  <path id="Union_49" data-name="Union 49" d="M-3053-1716.6v-.8a3.2,3.2,0,0,1,3.2-3.2h.8v4Zm-14.4,0v-.8a4.806,4.806,0,0,0-4.8-4.8h-.8v-3.2h.8a4.806,4.806,0,0,0,4.8-4.8v-.8h12.8v.8a4.806,4.806,0,0,0,4.8,4.8h.8v3.2h-.8a4.806,4.806,0,0,0-4.8,4.8v.8Zm1.6-7.2a4.8,4.8,0,0,0,4.8,4.8,4.806,4.806,0,0,0,4.8-4.8,4.8,4.8,0,0,0-4.8-4.8A4.8,4.8,0,0,0-3065.8-1723.8Zm-7.2,7.2v-4h.8a3.2,3.2,0,0,1,3.2,3.2v.8Zm8.8-7.2a3.2,3.2,0,0,1,3.2-3.2,3.2,3.2,0,0,1,3.2,3.2,3.2,3.2,0,0,1-3.2,3.2A3.2,3.2,0,0,1-3064.2-1723.8Zm14.4-3.2a3.2,3.2,0,0,1-3.2-3.2v-.8h4v4Zm-23.2,0v-4h4v.8a3.2,3.2,0,0,1-3.2,3.2Z" transform="translate(3073 1731)" fill="#0065ff"/>
</svg>
