<svg xmlns="http://www.w3.org/2000/svg" width="29.77" height="32" viewBox="0 0 29.77 32">
  <path id="Union_61" data-name="Union 61" d="M16.552,32V28.347l-1.339-2.378V28.14a.428.428,0,0,1-.44.416H8.624a.428.428,0,0,1-.439-.416V23.99a.429.429,0,0,1,.439-.416h1.738v-.31a.534.534,0,0,1,.549-.519h.252V20.4a1.049,1.049,0,0,1,.71-.981L15.359,18.2l2.722.9,1.41,2.46h2.093v1.393H19.279a1.087,1.087,0,0,1-.942-.538L17.471,20.9l-1.3,3.861,1.687,3a1.012,1.012,0,0,1,.132.5V32Zm-6.118-6.246v.705a.107.107,0,0,0,.11.1h.768v.726a.107.107,0,0,0,.11.1h.746a.106.106,0,0,0,.11-.1v-.726h.769a.107.107,0,0,0,.11-.1v-.523l-.017,0,.017-.061v-.116a.107.107,0,0,0-.11-.1h-.769v-.727a.106.106,0,0,0-.11-.1h-.746a.106.106,0,0,0-.11.1v.727h-.768A.107.107,0,0,0,10.434,25.754ZM12.6,20.649v2.116a.524.524,0,0,1,.4.5v.31h.787l1.009-3.7Zm-1.8,2.614v.31h1.757v-.31a.107.107,0,0,0-.11-.1H10.911A.107.107,0,0,0,10.8,23.264ZM5.954,30.087a3,3,0,0,1-2.976-3.009V16.549H1.489A1.484,1.484,0,0,1,.114,15.62a1.511,1.511,0,0,1,.323-1.639L13.833.441a1.475,1.475,0,0,1,2.1,0l13.4,13.54a1.512,1.512,0,0,1,.323,1.639,1.481,1.481,0,0,1-1.374.929H26.793V27.078a3,3,0,0,1-2.977,3.008V12.658l-8.93-9.026L5.955,12.658V30.086h0ZM16.006,16.422a1.532,1.532,0,1,1,1.531,1.484A1.508,1.508,0,0,1,16.006,16.422Z" transform="translate(0 0)" fill="#317af0"/>
</svg>
