<svg xmlns="http://www.w3.org/2000/svg" width="26.4" height="21.09" viewBox="0 0 26.4 21.09">
  <path id="Union_6" data-name="Union 6" d="M5.661,21.09a2.577,2.577,0,0,1-2.247-1.551h0L.193,11.156A3.383,3.383,0,0,1,0,10.027,2.69,2.69,0,0,1,1.622,7.486l.007,0A32.517,32.517,0,0,1,5.03,6.42V3.264a2.639,2.639,0,0,1,2-2.659A32.326,32.326,0,0,1,13.2,0,32.654,32.654,0,0,1,19.36.592a2.637,2.637,0,0,1,2.008,2.66V6.423a32.85,32.85,0,0,1,3.4,1.059h0l.005,0h0A2.658,2.658,0,0,1,26.4,10.016a2.946,2.946,0,0,1-.194,1.053l0,0-3.219,8.3h0a2.43,2.43,0,0,1-2.263,1.636,2.358,2.358,0,0,1-.75-.119l-.013,0A20.8,20.8,0,0,0,6.438,20.9l-.014.026a2.451,2.451,0,0,1-.748.164Zm15.062-1.88a.789.789,0,0,0,.756-.531l0-.013L24.7,10.373l.065-.356a.87.87,0,0,0-.519-.832l0,0a31.6,31.6,0,0,0-7.018-1.741.882.882,0,0,1-.716-1,.837.837,0,0,1,.907-.787c.776.1,1.55.238,2.32.394v-2.8a.882.882,0,0,0-.656-.891,30.526,30.526,0,0,0-11.761.013.88.88,0,0,0-.654.891V6.051c.777-.157,1.556-.3,2.341-.4a.838.838,0,0,1,.906.787.883.883,0,0,1-.717,1A31.322,31.322,0,0,0,2.162,9.181a.9.9,0,0,0-.529.847l.062.341,3.219,8.3,0,.013a.789.789,0,0,0,.756.531l.28-.046h0a22.33,22.33,0,0,1,14.488,0h0Zm-9.157-2.876V12.742H8.3V9.15h3.268V5.559h3.267V9.15H18.1v3.592H14.833v3.592Z" fill="#868d9a"/>
</svg>
