<svg xmlns="http://www.w3.org/2000/svg" width="24" height="15.072" viewBox="0 0 24 15.072">
  <path id="visa" d="M.96,6.7a.96.96,0,0,0-.96.96V20.808a.96.96,0,0,0,.96.96H23.04a.96.96,0,0,0,.96-.96V7.656a.96.96,0,0,0-.96-.96H.96Zm13.374,4.492a3.678,3.678,0,0,1,1.351.249l-.2,1.283-.135-.068a2.623,2.623,0,0,0-1.128-.227c-.59,0-.863.263-.863.509,0,.277.319.46.845.734.869.423,1.271.935,1.265,1.609-.012,1.229-1.04,2.023-2.623,2.023a4.488,4.488,0,0,1-1.679-.316l.211-1.326.194.095a2.977,2.977,0,0,0,1.418.311c.433,0,.9-.181.9-.578,0-.259-.194-.444-.781-.734-.571-.283-1.329-.758-1.321-1.609.009-1.151,1.057-1.955,2.546-1.955Zm-12.211.188H4.555a.632.632,0,0,1,.683.473l.524,2.706h0l.157.811L7.4,11.376h1.6L6.619,17.219h-1.6L3.753,12.505a4.269,4.269,0,0,1,1.772,1.5,4.224,4.224,0,0,0-.385-.654,5.283,5.283,0,0,0-.767-.743A5.685,5.685,0,0,0,2.1,11.492l.019-.116Zm7.507.007h1.562l-.977,5.833H8.652Zm8.824,0h1.183l1.239,5.833H19.455s-.141-.67-.187-.875l-1.961,0c-.059.158-.323.877-.323.877H15.378l2.273-5.349A.759.759,0,0,1,18.453,11.383Zm.116,1.569c-.077.217-.211.567-.2.552,0,0-.481,1.283-.607,1.615h1.264c-.061-.289-.353-1.668-.353-1.668l-.1-.5Z" transform="translate(0 -6.696)" fill="#0065ff"/>
</svg>
