<svg xmlns="http://www.w3.org/2000/svg" width="42" height="42" viewBox="0 0 42 42"><g transform="translate(-1177 -456)"><g transform="translate(1177 456)"><path d="M37.1,39.2V6.3H30.8V0H11.2V6.3H4.9V39.2H0V42H42V39.2ZM14,2.8H28v14H14ZM34.3,39.2H22.4V33.6H19.6v5.6H7.7V9.1h3.5V19.6H30.8V9.1h3.5Z" fill="#4d4d4d"/></g><g transform="translate(1190.85 462.5)"><path d="M21.5,5.625H18.061v3.3H14.625v3.3h3.436v3.3H21.5v-3.3h3.436v-3.3H21.5Z" transform="translate(-12.63 -7.198)" fill="#5452c5"/><path d="M11.25,21.375h4v4h-4Z" transform="translate(-12.058 -3.625)" fill="#4e50bc"/><path d="M16.875,21.375h4v4h-4Z" transform="translate(-11.725 -3.625)" fill="#4e50bc"/><path d="M22.5,21.375h4v4h-4Z" transform="translate(-11.392 -3.625)" fill="#4e50bc"/></g></g></svg>