<svg xmlns="http://www.w3.org/2000/svg" width="32.186" height="32.186" viewBox="0 0 32.186 32.186"><path d="M5.884,9.062A3.178,3.178,0,0,1,9.062,5.884h1.445a3.178,3.178,0,0,0,2.239-.924l1.011-1.011a3.178,3.178,0,0,1,4.507,0L19.275,4.96a3.178,3.178,0,0,0,2.239.924h1.445a3.178,3.178,0,0,1,3.178,3.178v1.445a3.178,3.178,0,0,0,.924,2.239l1.011,1.011a3.178,3.178,0,0,1,0,4.507L27.06,19.275a3.178,3.178,0,0,0-.924,2.239v1.445a3.178,3.178,0,0,1-3.178,3.178H21.514a3.178,3.178,0,0,0-2.239.924l-1.011,1.011a3.178,3.178,0,0,1-4.507,0L12.745,27.06a3.178,3.178,0,0,0-2.239-.924H9.062a3.178,3.178,0,0,1-3.178-3.178V21.514a3.178,3.178,0,0,0-.924-2.239L3.948,18.263a3.178,3.178,0,0,1,0-4.507L4.96,12.745a3.178,3.178,0,0,0,.924-2.239V9.062" transform="translate(-1.989 2.467) rotate(-8)" fill="none" stroke="#4d4d4d" stroke-linecap="round" stroke-linejoin="round" stroke-width="2.5"/></svg>