<svg id="sign-in-solid" xmlns="http://www.w3.org/2000/svg" width="15.429" height="16" viewBox="0 0 15.429 16">
  <path id="Path_16860" data-name="Path 16860" d="M18.1,4H10.9A1.043,1.043,0,0,0,10,5.143v4h3.825L12.3,7.263a.688.688,0,0,1,.024-.776.384.384,0,0,1,.611-.03l2.606,3.309-2.606,3.309a.384.384,0,0,1-.611-.03.688.688,0,0,1-.024-.776l1.521-1.983H10v8.571A1.043,1.043,0,0,0,10.9,20h7.2a1.043,1.043,0,0,0,.9-1.143V5.143A1.043,1.043,0,0,0,18.1,4Z" transform="translate(-3.571 -4)" fill="#317af0"/>
  <path id="Path_16861" data-name="Path 16861" d="M10,13H4a1,1,0,0,0,0,2h6Z" transform="translate(-3 -8.154)" fill="#317af0"/>
</svg>
