<svg xmlns="http://www.w3.org/2000/svg" width="16" height="15.484" viewBox="0 0 16 15.484">
  <g id="telephone-forward-fill" transform="translate(-1.124 -1.123)">
    <path id="Path_16867" data-name="Path 16867" d="M2.948,1.62a1.689,1.689,0,0,1,2.527.157L7.21,4.008a1.684,1.684,0,0,1,.306,1.445L6.986,7.572a.656.656,0,0,0,.172.623l2.378,2.377a.656.656,0,0,0,.623.172l2.118-.529a1.689,1.689,0,0,1,1.446.306l2.231,1.735a1.688,1.688,0,0,1,.158,2.527l-1,1a2.689,2.689,0,0,1-2.784.679,18.033,18.033,0,0,1-6.782-4.277A18.032,18.032,0,0,1,1.268,5.4a2.69,2.69,0,0,1,.679-2.785l1-1Zm10.713-.345a.516.516,0,0,1,.731,0l2.58,2.58a.516.516,0,0,1,0,.731l-2.58,2.58a.517.517,0,1,1-.731-.731l1.7-1.7H10.414a.516.516,0,0,1,0-1.032h4.947l-1.7-1.7a.516.516,0,0,1,0-.731Z" fill="#317af0" fill-rule="evenodd"/>
  </g>
</svg>
