<svg xmlns="http://www.w3.org/2000/svg" width="16" height="17.216" viewBox="0 0 16 17.216">
  <path id="Union_65" data-name="Union 65" d="M-1572.606,2114.966a.153.153,0,0,1-.154-.154v-7.077a.153.153,0,0,1,.154-.154h5.692a.308.308,0,0,1,.308.308v4.615a2.462,2.462,0,0,1-2.462,2.461Zm-5.077,0a2.461,2.461,0,0,1-2.462-2.461v-4.615a.308.308,0,0,1,.308-.308h5.692a.154.154,0,0,1,.154.154v7.077a.154.154,0,0,1-.154.154Zm5.077-8.615a.154.154,0,0,1-.154-.154v-4.154h-1.231V2100.5a1.539,1.539,0,0,0-.491-1.126,1.538,1.538,0,0,0-1.158-.408h0a1.538,1.538,0,0,0-1.415,1.589,1.539,1.539,0,0,0,1.525,1.484h1.539v4.153a.154.154,0,0,1-.154.154h-5.384a1.847,1.847,0,0,1-.615-.106,1.849,1.849,0,0,1-1.231-1.74v-.615a1.846,1.846,0,0,1,1.846-1.846h1.559a.077.077,0,0,0,.066-.039.078.078,0,0,0,0-.076,2.77,2.77,0,0,1,.8-3.679,2.77,2.77,0,0,1,3.729.518,2.769,2.769,0,0,1,3.729-.518,2.771,2.771,0,0,1,.8,3.679.076.076,0,0,0,0,.076.077.077,0,0,0,.066.039h1.559a1.846,1.846,0,0,1,1.846,1.846v.615a1.849,1.849,0,0,1-1.231,1.74,1.851,1.851,0,0,1-.615.106Zm-.154-5.846v1.539h1.538a1.539,1.539,0,0,0,1.539-1.539,1.539,1.539,0,0,0-1.539-1.539A1.539,1.539,0,0,0-1572.759,2100.5Zm-1.231,1.539h0Z" transform="translate(1581.375 -2097.75)" fill="#317af0"/>
</svg>
