<svg xmlns="http://www.w3.org/2000/svg" width="16" height="14.222" viewBox="0 0 16 14.222">
  <path id="user-plus" d="M13.111,15.778c2.832,0,5.373.507,7.111,2.723v1.721H6V18.5C7.738,16.284,10.279,15.778,13.111,15.778Zm0-2.667a3.556,3.556,0,1,1,3.556-3.556A3.556,3.556,0,0,1,13.111,13.111Zm7.111,1.778a.889.889,0,0,1-1.778,0V14h-.889a.889.889,0,1,1,0-1.778h.889v-.889a.889.889,0,1,1,1.778,0v.889h.889a.889.889,0,1,1,0,1.778h-.889Z" transform="translate(-6 -6)" fill="#317af0" fill-rule="evenodd"/>
</svg>
