<svg xmlns="http://www.w3.org/2000/svg" width="16" height="14.933" viewBox="0 0 16 14.933">
  <path id="users" d="M4.942,7.466A2.873,2.873,0,0,0,2.733,8.533H1.616A1.911,1.911,0,0,1,.467,8.2,1.142,1.142,0,0,1,0,7.208Q0,4.267,1.033,4.267a1.6,1.6,0,0,1,.363.175,5.493,5.493,0,0,0,.812.354,2.923,2.923,0,0,0,.992.179,3.351,3.351,0,0,0,1.108-.192,4.146,4.146,0,0,0-.042.55,3.669,3.669,0,0,0,.675,2.133Zm8.925,5.308a2.076,2.076,0,0,1-.608,1.579,2.247,2.247,0,0,1-1.616.579H4.358a2.246,2.246,0,0,1-1.616-.579,2.078,2.078,0,0,1-.608-1.579q0-.442.029-.863A8.511,8.511,0,0,1,2.279,11a7.11,7.11,0,0,1,.22-.9,4.257,4.257,0,0,1,.358-.812,2.943,2.943,0,0,1,.516-.675,2.167,2.167,0,0,1,.712-.446A2.505,2.505,0,0,1,5.016,8a.979.979,0,0,1,.358.179l.608.4a3.661,3.661,0,0,0,.892.4,3.868,3.868,0,0,0,3.141-.4l.608-.4A.979.979,0,0,1,10.982,8a2.5,2.5,0,0,1,.929.167,2.173,2.173,0,0,1,.712.446,2.927,2.927,0,0,1,.516.675,4.3,4.3,0,0,1,.358.812,7.059,7.059,0,0,1,.221.9,8.512,8.512,0,0,1,.117.908q.029.421.029.863ZM5.333,2.133a2.056,2.056,0,0,1-.625,1.508A2.053,2.053,0,0,1,3.2,4.267a2.058,2.058,0,0,1-1.508-.625,2.054,2.054,0,0,1-.625-1.508A2.054,2.054,0,0,1,1.692.625,2.058,2.058,0,0,1,3.2,0,2.053,2.053,0,0,1,4.708.625,2.056,2.056,0,0,1,5.333,2.133Zm5.867,3.2A3.084,3.084,0,0,1,10.262,7.6,3.081,3.081,0,0,1,8,8.533,3.085,3.085,0,0,1,5.737,7.6,3.082,3.082,0,0,1,4.8,5.333a3.082,3.082,0,0,1,.937-2.263A3.085,3.085,0,0,1,8,2.133a3.081,3.081,0,0,1,2.263.937A3.084,3.084,0,0,1,11.2,5.333ZM16,7.208a1.142,1.142,0,0,1-.467.988,1.907,1.907,0,0,1-1.15.337H13.267a2.873,2.873,0,0,0-2.208-1.067,3.669,3.669,0,0,0,.675-2.133,4.146,4.146,0,0,0-.042-.55,3.351,3.351,0,0,0,1.108.192,2.925,2.925,0,0,0,.992-.179,5.465,5.465,0,0,0,.812-.354,1.585,1.585,0,0,1,.363-.175Q16,4.266,16,7.208ZM14.933,2.133a2.056,2.056,0,0,1-.625,1.508,2.133,2.133,0,0,1-3.017,0,2.054,2.054,0,0,1-.625-1.508A2.054,2.054,0,0,1,11.291.625a2.133,2.133,0,0,1,3.017,0A2.056,2.056,0,0,1,14.933,2.133Z" transform="translate(0 0)" fill="#317af0"/>
</svg>
