<svg xmlns="http://www.w3.org/2000/svg" width="16" height="17.231" viewBox="0 0 16 17.231">
  <path id="transgender-alt" d="M12.307.308A.3.3,0,0,1,12.615,0h2.769a.591.591,0,0,1,.433.183A.591.591,0,0,1,16,.616V3.385a.3.3,0,0,1-.308.308h-.616a.3.3,0,0,1-.308-.308V2.1L12.327,4.548A5.388,5.388,0,0,1,13.538,8a5.34,5.34,0,0,1-1.418,3.7,5.372,5.372,0,0,1-3.5,1.8v1.269h.923a.3.3,0,0,1,.308.308v.616A.3.3,0,0,1,9.539,16H8.615v.923a.3.3,0,0,1-.308.308H7.692a.3.3,0,0,1-.308-.308V16H6.461a.3.3,0,0,1-.308-.308v-.616a.3.3,0,0,1,.308-.308h.923V13.5a5.371,5.371,0,0,1-3.5-1.8A5.336,5.336,0,0,1,2.462,8,5.388,5.388,0,0,1,3.673,4.548l-.5-.51L2.2,5.106a.29.29,0,0,1-.212.1.323.323,0,0,1-.221-.072l-.461-.423a.265.265,0,0,1-.1-.207.307.307,0,0,1,.082-.225L2.3,3.173,1.231,2.1V3.385a.3.3,0,0,1-.308.308H.308A.3.3,0,0,1,0,3.385V.616A.591.591,0,0,1,.183.183.591.591,0,0,1,.616,0H3.385a.3.3,0,0,1,.308.308V.923a.3.3,0,0,1-.308.308H2.106L3.125,2.26l.827-.9a.29.29,0,0,1,.212-.1.323.323,0,0,1,.221.072l.461.423a.265.265,0,0,1,.1.207.305.305,0,0,1-.082.225L4,3.135l.548.538A5.388,5.388,0,0,1,8,2.462a5.388,5.388,0,0,1,3.452,1.211L13.9,1.231H12.615a.3.3,0,0,1-.308-.308ZM8,12.307a4.147,4.147,0,0,0,3.043-1.265A4.151,4.151,0,0,0,12.307,8a4.146,4.146,0,0,0-1.265-3.043A4.15,4.15,0,0,0,8,3.692,4.15,4.15,0,0,0,4.957,4.957,4.146,4.146,0,0,0,3.692,8a4.151,4.151,0,0,0,1.265,3.043A4.147,4.147,0,0,0,8,12.307Z" fill="#8d8d8d"/>
</svg>
