<svg xmlns="http://www.w3.org/2000/svg" width="16" height="15" viewBox="0 0 16 15">
  <path id="Union_63" data-name="Union 63" d="M.875,15A.89.89,0,0,1,0,14.095V2.905A.89.89,0,0,1,.9,2h2V3.5a1.1,1.1,0,1,0,2.2,0V2h5.825V3.5a1.1,1.1,0,1,0,2.2,0V2h2A.89.89,0,0,1,16,2.905v11.19a.89.89,0,0,1-.875.905ZM12,12h1V11H12ZM9,12h1V11H9ZM6,12H7V11H6ZM3,12H4V11H3Zm9-2.5h1v-1H12Zm-3,0h1v-1H9Zm-3,0H7v-1H6Zm-3,0H4v-1H3ZM12,7h1V6H12ZM9,7h1V6H9ZM6,7H7V6H6ZM3,7H4V6H3Zm8.5-3.5V.5a.5.5,0,1,1,1,0v3a.5.5,0,1,1-1,0Zm-8,0V.5a.5.5,0,1,1,1,0v3a.5.5,0,0,1-1,0Z" fill="#8d8d8d"/>
</svg>
