<svg xmlns="http://www.w3.org/2000/svg" width="36" height="36" viewBox="0 0 36 36">
  <path id="google-plus-square" d="M21.492,18.211a9.876,9.876,0,0,0-.141-1.5H12.867v3.094h5.086a3.48,3.48,0,0,1-.387,1.172,6.245,6.245,0,0,1-.878,1.242,4.144,4.144,0,0,1-1.559,1.043,5.907,5.907,0,0,1-2.262.41,5.36,5.36,0,0,1-3.961-1.664,5.715,5.715,0,0,1,0-8.016,5.36,5.36,0,0,1,3.961-1.664,4.952,4.952,0,0,1,3.586,1.383l2.438-2.367A8.566,8.566,0,0,0,12.867,9a8.659,8.659,0,0,0-6.375,2.637A8.691,8.691,0,0,0,3.867,18a8.691,8.691,0,0,0,2.625,6.363A8.659,8.659,0,0,0,12.867,27a8.293,8.293,0,0,0,6.246-2.461A8.727,8.727,0,0,0,21.492,18.211Zm8.086,1.078h2.555V16.711H29.578V14.133H27v2.578H24.422v2.578H27v2.578h2.578V19.289ZM36,6.75v22.5A6.76,6.76,0,0,1,29.25,36H6.75a6.5,6.5,0,0,1-4.77-1.98A6.5,6.5,0,0,1,0,29.25V6.75A6.5,6.5,0,0,1,1.98,1.98,6.5,6.5,0,0,1,6.75,0h22.5a6.5,6.5,0,0,1,4.77,1.98A6.5,6.5,0,0,1,36,6.75Z" fill="#fff"/>
</svg>
