<svg xmlns="http://www.w3.org/2000/svg" width="35.968" height="35.956" viewBox="0 0 35.968 35.956">
  <path id="instagram-filled" d="M21.729,18.391a3.545,3.545,0,1,0-3.545,3.529A3.541,3.541,0,0,0,21.729,18.391ZM27,.022H9.005A8.979,8.979,0,0,0,.016,8.971v2.494H13.243a8.538,8.538,0,0,1,9.882,0H35.983V8.971A8.978,8.978,0,0,0,27,.022Zm3.64,8.512a1,1,0,0,1-1,.994H26.55a1,1,0,0,1-1-.994V5.461a1,1,0,0,1,1-.994h3.086a1,1,0,0,1,1,.994Zm-3.913,9.857a8.538,8.538,0,0,1-17.076,0,8.419,8.419,0,0,1,.811-3.611H.016V27.029a8.979,8.979,0,0,0,8.989,8.949h17.99a8.979,8.979,0,0,0,8.989-8.949V14.779H25.911a8.422,8.422,0,0,1,.811,3.611Z" transform="translate(-0.016 -0.022)" fill="#fff"/>
</svg>
