<svg xmlns="http://www.w3.org/2000/svg" width="36.001" height="36" viewBox="0 0 36.001 36">
  <path id="linkedin-square" d="M5.555,30.141h5.414V13.875H5.555ZM11.321,8.86a2.768,2.768,0,0,0-.844-2.016,3,3,0,0,0-2.18-.8,3.121,3.121,0,0,0-2.215.8A2.633,2.633,0,0,0,5.227,8.86a2.683,2.683,0,0,0,.832,2,2.975,2.975,0,0,0,2.168.808H8.25a3.084,3.084,0,0,0,2.227-.809,2.664,2.664,0,0,0,.844-2ZM25.032,30.141h5.414V20.813a7.784,7.784,0,0,0-1.711-5.461A5.866,5.866,0,0,0,24.212,13.5a5.448,5.448,0,0,0-4.9,2.742h.047V13.875H13.945q.07,1.547,0,16.266h5.414V21.047a3.881,3.881,0,0,1,.164-1.313,3.629,3.629,0,0,1,1.055-1.4,2.645,2.645,0,0,1,1.734-.574q2.719,0,2.719,3.68V30.14ZM36,6.75v22.5A6.76,6.76,0,0,1,29.25,36H6.75a6.5,6.5,0,0,1-4.77-1.98A6.5,6.5,0,0,1,0,29.25V6.75A6.5,6.5,0,0,1,1.98,1.98,6.5,6.5,0,0,1,6.75,0h22.5a6.5,6.5,0,0,1,4.77,1.98A6.5,6.5,0,0,1,36,6.75Z" fill="#fff"/>
</svg>
