<svg xmlns="http://www.w3.org/2000/svg" width="36" height="36" viewBox="0 0 36 36">
  <path id="twitter-square" d="M30,11.3a10.434,10.434,0,0,1-2.836.8,4.786,4.786,0,0,0,2.18-2.742A9.765,9.765,0,0,1,26.2,10.547,4.678,4.678,0,0,0,22.617,9a4.922,4.922,0,0,0-4.922,4.922,4.521,4.521,0,0,0,.117,1.125,13.94,13.94,0,0,1-5.672-1.523,13.926,13.926,0,0,1-4.5-3.633,4.873,4.873,0,0,0-.68,2.484,4.643,4.643,0,0,0,2.133,4.1,5.8,5.8,0,0,1-2.344-.609v.047a4.68,4.68,0,0,0,1.172,3.129,4.918,4.918,0,0,0,2.883,1.7,4.562,4.562,0,0,1-1.195.188,6.577,6.577,0,0,1-.914-.094,5,5,0,0,0,1.746,2.438,4.675,4.675,0,0,0,2.848.984,9.727,9.727,0,0,1-6.117,2.109A9.5,9.5,0,0,1,6,26.3a13.809,13.809,0,0,0,7.547,2.2,14.343,14.343,0,0,0,4.922-.832,12.676,12.676,0,0,0,3.938-2.227,14.778,14.778,0,0,0,2.824-3.211,14.167,14.167,0,0,0,2.331-7.746q0-.422-.023-.633A9.562,9.562,0,0,0,30,11.3ZM36,6.75v22.5A6.76,6.76,0,0,1,29.25,36H6.75a6.5,6.5,0,0,1-4.77-1.98A6.5,6.5,0,0,1,0,29.25V6.75A6.5,6.5,0,0,1,1.98,1.98,6.5,6.5,0,0,1,6.75,0h22.5a6.5,6.5,0,0,1,4.77,1.98A6.5,6.5,0,0,1,36,6.75Z" fill="#fff"/>
</svg>
