<svg xmlns="http://www.w3.org/2000/svg" width="36" height="36" viewBox="0 0 36 36">
  <path id="youtube-square" d="M21.539,27.539v-3.68q0-1.172-.68-1.172a1.1,1.1,0,0,0-.773.375v5.25a1.1,1.1,0,0,0,.773.375q.68,0,.68-1.148Zm4.313-2.859H27.4v-.8q0-1.2-.773-1.195t-.773,1.195v.8ZM12.469,18.445v1.641H10.594V30H8.86V20.086H7.032V18.445H12.47ZM17.18,21.4V30H15.61v-.938a2.492,2.492,0,0,1-1.781,1.055.921.921,0,0,1-.984-.656,4.115,4.115,0,0,1-.141-1.266V21.4h1.547v6.328a3.6,3.6,0,0,0,.023.609q.023.352.352.352.469,0,.984-.727V21.4h1.57ZM23.086,24v3.422a6.113,6.113,0,0,1-.164,1.711,1.2,1.2,0,0,1-1.242.984,2.124,2.124,0,0,1-1.594-.961V30h-1.57V18.445h1.57v3.773a2.084,2.084,0,0,1,1.594-.938,1.2,1.2,0,0,1,1.242.984A6.231,6.231,0,0,1,23.086,24Zm5.883,3.023v.211a7.8,7.8,0,0,1-.047,1.008,2.2,2.2,0,0,1-.352.938,2.115,2.115,0,0,1-1.875.938,2.25,2.25,0,0,1-1.9-.891,3.3,3.3,0,0,1-.492-2.016V24.188a3.422,3.422,0,0,1,.469-2.016,2.228,2.228,0,0,1,1.875-.891,2.1,2.1,0,0,1,1.828.891,3.427,3.427,0,0,1,.492,2.016v1.781H25.852v1.523q0,1.2.8,1.195a.678.678,0,0,0,.7-.609q0-.023.012-.164t.012-.387v-.5H28.97ZM18.4,7.711v3.656q0,1.195-.75,1.195t-.75-1.195V7.711q0-1.219.75-1.219T18.4,7.711ZM30.89,24.422a30.009,30.009,0,0,0-.445-6.094,3.206,3.206,0,0,0-1.008-1.723,3.164,3.164,0,0,0-1.781-.809A96.291,96.291,0,0,0,18,15.444a95.974,95.974,0,0,0-9.633.352,3.127,3.127,0,0,0-1.793.809,3.238,3.238,0,0,0-1,1.723,29.314,29.314,0,0,0-.469,6.094,28.707,28.707,0,0,0,.469,6.094,3.29,3.29,0,0,0,1,1.711,3.075,3.075,0,0,0,1.77.82Q11.555,33.4,18,33.4t9.656-.352a3.075,3.075,0,0,0,1.77-.82,3.29,3.29,0,0,0,1-1.711,28.707,28.707,0,0,0,.469-6.094ZM13.195,9.164,15.3,2.226H13.546L12.351,6.8l-1.242-4.57H9.281q.164.539.539,1.617l.563,1.617a32.212,32.212,0,0,1,1.078,3.7v4.711h1.734Zm6.773,1.9V8.016a3.475,3.475,0,0,0-.492-2.039,2.181,2.181,0,0,0-1.828-.891,2.1,2.1,0,0,0-1.828.891,3.475,3.475,0,0,0-.492,2.039v3.047A3.475,3.475,0,0,0,15.82,13.1a2.1,2.1,0,0,0,1.828.891,2.181,2.181,0,0,0,1.828-.891,3.345,3.345,0,0,0,.492-2.039Zm4.242,2.813h1.57V5.2H24.21v6.633q-.516.727-.984.727-.352,0-.375-.375a3.608,3.608,0,0,1-.023-.609V5.2h-1.57V12.07a4.363,4.363,0,0,0,.141,1.289.987.987,0,0,0,1.008.633,2.618,2.618,0,0,0,1.805-1.055v.938ZM36,6.75v22.5A6.76,6.76,0,0,1,29.25,36H6.75a6.5,6.5,0,0,1-4.77-1.98A6.5,6.5,0,0,1,0,29.25V6.75A6.5,6.5,0,0,1,1.98,1.98,6.5,6.5,0,0,1,6.75,0h22.5a6.5,6.5,0,0,1,4.77,1.98A6.5,6.5,0,0,1,36,6.75Z" fill="#fff"/>
</svg>
